<svg xmlns="http://www.w3.org/2000/svg" width="158" height="39" viewBox="0 0 158 39" fill="none"><path d="M137.874 16.5823C137.874 10.4362 133.737 6.1338 127.811 6.1338C121.884 6.1338 117.79 10.4362 117.79 16.5823C117.79 22.7284 121.928 27.1085 127.811 27.1085C133.694 27.1085 137.874 22.7263 137.874 16.5823ZM127.813 26.295C124.853 26.295 120.557 21.9128 120.557 16.5823C120.557 11.2518 124.206 6.95954 127.813 6.95954C133.453 6.95954 136.955 11.2518 136.955 16.5823C136.955 21.9128 133.453 26.295 127.813 26.295Z" fill="#F2EADE"></path><path d="M32.9561 9.59211L32.9383 9.61663L32.0346 10.7224L32.0147 10.749L25.802 18.3687L24.8785 19.4969L23.7166 20.9256L23.083 21.6982L22.793 22.0539L22.1614 22.8306L20.9975 24.2552L20.1435 25.3057L20.078 25.3855L18.7075 27.0676L18.6996 27.0758H19.9052L21.1167 27.0676H22.3203L22.5805 26.7508L22.793 26.4892L23.083 26.1356L32.0147 15.1802L32.0346 15.1557L32.9383 14.0499L32.9561 14.0254L34.8072 11.7546V26.1254H25.516L25.5021 26.1458L24.7434 27.0758H35.7268V6.19103L32.9561 9.59211Z" fill="#F2EADE"></path><path d="M2.76869 7.14963C3.07853 7.19255 3.38638 7.24365 3.68828 7.30701C8.74302 8.36984 12.7908 12.2839 14.1672 17.3508C14.4989 18.5649 14.6756 19.8485 14.6756 21.1729V27.0697H15.6032V21.2097C15.6032 13.8108 10.4134 7.6606 3.57506 6.39951C3.30892 6.35045 3.03881 6.30753 2.76869 6.27483C2.18278 6.1992 1.58495 6.16241 0.979171 6.16241H0V27.0697H2.76869V7.14963Z" fill="#F2EADE"></path><path d="M141.892 27.0676H143.789V11.1291L144.665 12.2022L144.685 12.2267L153.907 23.5378L154.119 23.7994L154.538 24.3104L155.354 25.3119L155.702 25.735L156.022 26.1274H146.53V17.3794L145.61 16.2491V27.0778H156.796H156.794H158L156.624 25.3895L156.558 25.3098L144.685 10.751L144.665 10.7265L143.763 9.62072L143.743 9.5962L140.971 6.19512V27.0778H141.892V27.0676Z" fill="#F2EADE"></path><path d="M74.2898 27.0676V27.0758H75.2114V0L65.2827 12.1756L64.3631 13.3059L62.2776 15.8628L61.644 16.6375L58.1842 20.8827L57.0163 22.3114L55.8505 20.8827L55.8445 20.8766L55.8346 20.8582L55.8326 20.8602L55.2308 20.1203L54.2218 18.8838L52.3906 16.6375L51.761 15.8628L51.469 15.5072L50.8374 14.7346L42.5175 4.53341V4.53137L38.8232 0V27.0737H39.7448V27.0676H41.5939V4.87474L41.5959 4.87679L51.469 16.987L51.761 17.3406L51.9715 17.6022L53.2089 19.1188L53.5545 19.5399L54.476 20.6722L54.627 20.8582L56.4145 23.0493L57.0183 23.7871L59.7215 27.1003H60.9231L57.6201 23.0513L60.8258 19.1188L61.644 18.1173L62.0631 17.6022L62.5676 16.987L63.1972 16.2124L64.3631 14.7857L72.4388 4.87679L72.4408 4.87474V27.0676H74.2898Z" fill="#F2EADE"></path><path d="M58.0829 20.2184L58.0471 20.1755L58.0412 20.1878L58.065 20.2184H58.0829Z" fill="#F2EADE"></path><path d="M104.767 12.1756L103.848 13.3059L101.762 15.8628L101.129 16.6375L96.5009 22.3114L95.3351 20.8827L95.3291 20.8766L95.3192 20.8582L95.3152 20.8602L94.7154 20.1203L93.7044 18.8838L93.0391 18.0641L91.8732 16.6375L91.2436 15.8628L90.9536 15.5072L90.322 14.7346L82.0021 4.53341V4.53137L78.3078 0V27.0737H79.2294V27.0676H81.0785V4.87474L81.0805 4.87679L90.9536 16.987L91.2436 17.3406L91.4541 17.6022L92.6935 19.1188L93.0391 19.5399L93.9587 20.6722L94.1116 20.8582L95.8991 23.0493L96.5029 23.7871L99.2061 27.1003H100.408L97.1027 23.0513L100.31 19.1188L101.129 18.1173L101.548 17.6022L102.052 16.987L102.682 16.2124L103.848 14.7857L111.923 4.87679L111.925 4.87474V27.0676H113.774V27.0758H114.696V0L104.767 12.1756Z" fill="#F2EADE"></path><path d="M31.7644 35.0982H31.0713V38.9428H33.7188V38.3398H31.7644V35.0982Z" fill="#F2EADE"></path><path d="M39.4429 37.2402C39.4429 37.6367 39.3615 37.9229 39.1966 38.1027C39.0338 38.2826 38.7994 38.3725 38.4975 38.3725C38.1956 38.3725 37.9612 38.2826 37.7964 38.1027C37.6315 37.9229 37.5481 37.6367 37.5481 37.2402V35.0982H36.8549V37.2688C36.8549 37.8288 36.9999 38.2581 37.2899 38.5544C37.5799 38.8508 37.9811 39 38.4935 39C39.0059 39 39.4012 38.8508 39.6912 38.5544C39.9811 38.2581 40.1261 37.8288 40.1261 37.2688V35.0982H39.4429V37.2402Z" fill="#F2EADE"></path><path d="M46.7718 35.0982H46.019L45.0756 36.4635L44.1183 35.0982H43.3338L44.6446 36.9806L43.2583 38.9428H44.0488L45.0518 37.4793L46.0667 38.9428H46.8691L45.4649 36.954L46.7718 35.0982Z" fill="#F2EADE"></path><path d="M52.5852 37.2402C52.5852 37.6367 52.5038 37.9229 52.3389 38.1027C52.1761 38.2826 51.9417 38.3725 51.6398 38.3725C51.3379 38.3725 51.1036 38.2826 50.9387 38.1027C50.7739 37.9229 50.6904 37.6367 50.6904 37.2402V35.0982H49.9973V37.2688C49.9973 37.8288 50.1423 38.2581 50.4322 38.5544C50.7222 38.8508 51.1234 39 51.6359 39C52.1483 39 52.5435 38.8508 52.8335 38.5544C53.1235 38.2581 53.2685 37.8288 53.2685 37.2688V35.0982H52.5852V37.2402Z" fill="#F2EADE"></path><path d="M59.2984 37.6612C59.5348 37.5529 59.7175 37.3976 59.8446 37.1952C59.9737 36.9929 60.0373 36.7496 60.0373 36.4676C60.0373 36.1855 59.9737 35.9423 59.8446 35.7359C59.7155 35.5294 59.5348 35.3741 59.2984 35.2637C59.0621 35.1533 58.778 35.0982 58.4464 35.0982H56.9091V38.9448H57.6022V37.8247H58.4464C58.496 37.8247 58.5437 37.8207 58.5913 37.8186L59.354 38.9448H60.1008L59.2408 37.6837C59.2587 37.6755 59.2785 37.6715 59.2964 37.6633L59.2984 37.6612ZM59.1077 35.8994C59.2627 36.0322 59.3401 36.2203 59.3401 36.4655C59.3401 36.7108 59.2627 36.8968 59.1077 37.0317C58.9528 37.1666 58.7224 37.2341 58.4166 37.2341H57.6042V35.7011H58.4166C58.7224 35.7011 58.9528 35.7665 59.1077 35.8994Z" fill="#F2EADE"></path><path d="M65.8209 35.0982L64.7166 36.9683L63.6203 35.0982H62.8794L64.3472 37.5979V38.9428H65.0404V37.5877L66.5042 35.0982H65.8209Z" fill="#F2EADE"></path><path d="M73.7695 38.9428H74.4626V37.4711H76.2681V36.8661H74.4626V35.697H76.4965V35.0982H73.7695V38.9428Z" fill="#F2EADE"></path><path d="M82.3973 37.2402C82.3973 37.6367 82.3159 37.9229 82.151 38.1027C81.9882 38.2826 81.7538 38.3725 81.4519 38.3725C81.15 38.3725 80.9156 38.2826 80.7508 38.1027C80.5859 37.9229 80.5025 37.6367 80.5025 37.2402V35.0982H79.8093V37.2688C79.8093 37.8288 79.9543 38.2581 80.2443 38.5544C80.5343 38.8508 80.9355 39 81.4479 39C81.9603 39 82.3556 38.8508 82.6456 38.5544C82.9355 38.2581 83.0805 37.8288 83.0805 37.2688V35.0982H82.3973V37.2402Z" fill="#F2EADE"></path><path d="M89.1105 37.6612C89.3468 37.5529 89.5296 37.3976 89.6587 37.1952C89.7878 36.9929 89.8513 36.7496 89.8513 36.4676C89.8513 36.1855 89.7878 35.9423 89.6587 35.7359C89.5315 35.5315 89.3488 35.3741 89.1105 35.2637C88.8741 35.1533 88.5901 35.0982 88.2584 35.0982H86.7211V38.9448H87.4143V37.8247H88.2584C88.3081 37.8247 88.3557 37.8207 88.4034 37.8186L89.1661 38.9448H89.9129L89.0529 37.6837C89.0708 37.6755 89.0906 37.6715 89.1085 37.6633L89.1105 37.6612ZM88.9178 35.8994C89.0727 36.0322 89.1502 36.2203 89.1502 36.4655C89.1502 36.7108 89.0727 36.8968 88.9178 37.0317C88.7629 37.1666 88.5325 37.2341 88.2266 37.2341H87.4143V35.7011H88.2266C88.5325 35.7011 88.7629 35.7665 88.9178 35.8994Z" fill="#F2EADE"></path><path d="M95.9249 37.7021L93.8633 35.0982H93.2933V38.9428H93.9805V36.3388L96.0421 38.9428H96.6122V35.0982H95.9249V37.7021Z" fill="#F2EADE"></path><path d="M100.98 35.0982H100.287V38.9448H100.98V35.0982Z" fill="#F2EADE"></path><path d="M104.177 35.7011H105.417V38.9428H106.11V35.7011H107.349V35.0982H104.177V35.7011Z" fill="#F2EADE"></path><path d="M113.03 37.2402C113.03 37.6367 112.948 37.9229 112.783 38.1027C112.62 38.2826 112.386 38.3725 112.084 38.3725C111.782 38.3725 111.548 38.2826 111.383 38.1027C111.218 37.9229 111.135 37.6367 111.135 37.2402V35.0982H110.442V37.2688C110.442 37.8288 110.587 38.2581 110.877 38.5544C111.167 38.8508 111.568 39 112.08 39C112.593 39 112.988 38.8508 113.278 38.5544C113.568 38.2581 113.713 37.8288 113.713 37.2688V35.0982H113.03V37.2402Z" fill="#F2EADE"></path><path d="M119.743 37.6612C119.979 37.5529 120.162 37.3976 120.291 37.1952C120.42 36.9929 120.484 36.7496 120.484 36.4676C120.484 36.1855 120.42 35.9423 120.291 35.7359C120.164 35.5315 119.981 35.3741 119.743 35.2637C119.506 35.1533 119.222 35.0982 118.891 35.0982H117.353V38.9448H118.047V37.8247H118.891C118.94 37.8247 118.988 37.8207 119.036 37.8186L119.798 38.9448H120.545L119.685 37.6837C119.703 37.6755 119.723 37.6715 119.741 37.6633L119.743 37.6612ZM119.55 35.8994C119.705 36.0322 119.783 36.2203 119.783 36.4655C119.783 36.7108 119.705 36.8968 119.55 37.0317C119.395 37.1666 119.165 37.2341 118.859 37.2341H118.047V35.7011H118.859C119.165 35.7011 119.395 35.7665 119.55 35.8994Z" fill="#F2EADE"></path><path d="M124.619 37.2852H126.424V36.6965H124.619V35.697H126.653V35.0982H123.926V38.9428H126.728V38.3439H124.619V37.2852Z" fill="#F2EADE"></path><path d="M157.648 38.3214H129.59V38.9325H157.648V38.3214Z" fill="#F2EADE"></path><path d="M28.0583 38.3214H0V38.9325H28.0583V38.3214Z" fill="#F2EADE"></path></svg>